# xmcd
#
# Track frame offsets:
#	220
#	25887
#	45875
#	55712
#	70970
#	82927
#	99437
#	113520
#	129695
#	143265
#	159345
#	171520
#	182440
#	196712
#	210175
#	222205
#	235120
#	249325
#	261392
#	274090
#	289327
#
# Disc length: 4291 seconds
#
# Revision: 2
# Processed by: cddbd v1.4PL0 Copyright (c) Steve Scherf et al.
# Submitted via: EasyCDDAExtractor 4.5.0.2
#
DISCID=1610c115
DTITLE=Seldom Scene - Live At The Cellar Door
DYEAR=1974
DGENRE=Bluegrass
TTITLE0=Doing My Time
TTITLE1=California Cottonfields
TTITLE2=Panhandle Country
TTITLE3=Muddy Waters
TTITLE4=Rawhide
TTITLE5=Baby Blue
TTITLE6=City of New Orleans
TTITLE7=The Fields Have Turned Brown
TTITLE8=Hit Parade of Love
TTITLE9=Will The Circle Be Unbroken
TTITLE10=Pickaway
TTITLE11=Dark Hollow
TTITLE12=Small Exception of Me
TTITLE13=If I Were A Carpenter
TTITLE14=Old Gray Bonnet
TTITLE15=C and O Canal
TTITLE16=Georgia Rose
TTITLE17=Colorado Turnaround
TTITLE18=He Rode All The Way To Texas
TTITLE19=White Line
TTITLE20=Rider
EXTD=
EXTT0=
EXTT1=
EXTT2=
EXTT3=
EXTT4=
EXTT5=
EXTT6=
EXTT7=
EXTT8=
EXTT9=
EXTT10=
EXTT11=
EXTT12=
EXTT13=
EXTT14=
EXTT15=
EXTT16=
EXTT17=
EXTT18=
EXTT19=
EXTT20=
PLAYORDER=
